<?xml version="1.0" encoding="utf-8"?>
<!-- Generator: Adobe Illustrator 16.0.0, SVG Export Plug-In . SVG Version: 6.00 Build 0)  -->
<!DOCTYPE svg PUBLIC "-//W3C//DTD SVG 1.1//EN" "http://www.w3.org/Graphics/SVG/1.1/DTD/svg11.dtd">
<svg version="1.1" id="Layer_1" xmlns="http://www.w3.org/2000/svg" xmlns:xlink="http://www.w3.org/1999/xlink" x="0px" y="0px"
	 width="240px" height="44px" viewBox="0 0 240 44" enable-background="new 0 0 240 44" xml:space="preserve">
<path fill="#FFFFFF" d="M59.555,35.951c-1.409,0-2.771-0.273-4.052-0.812c-1.28-0.538-2.422-1.303-3.395-2.276
	c-0.999-0.999-1.771-2.154-2.295-3.434c-0.525-1.278-0.791-2.629-0.791-4.011c0-1.408,0.265-2.771,0.791-4.051
	c0.524-1.28,1.296-2.436,2.295-3.434c0.974-0.973,2.115-1.738,3.395-2.276c1.28-0.537,2.644-0.811,4.052-0.811
	c1.407,0,2.77,0.273,4.05,0.811c1.279,0.538,2.421,1.303,3.395,2.276c0.998,0.998,1.772,2.153,2.297,3.434
	c0.525,1.282,0.794,2.644,0.794,4.051v10.315c0,0.124-0.101,0.224-0.226,0.224h-2.559c-0.124,0-0.225-0.1-0.225-0.224v-2.594
	c0-0.207-0.255-0.304-0.392-0.149c-0.324,0.365-0.655,0.691-1.018,0.968c-0.616,0.476-1.262,0.865-1.943,1.162
	c-0.68,0.292-1.382,0.508-2.101,0.636C60.913,35.885,60.218,35.951,59.555,35.951 M59.555,17.811c-1.039,0-2.029,0.2-2.945,0.596
	c-0.917,0.396-1.726,0.942-2.406,1.623c-0.681,0.681-1.227,1.496-1.622,2.424s-0.596,1.925-0.596,2.965
	c0,1.039,0.201,2.03,0.596,2.944c0.396,0.916,0.941,1.726,1.622,2.404c0.681,0.682,1.49,1.228,2.406,1.625
	c0.914,0.395,1.905,0.595,2.945,0.595c1.039,0,2.03-0.2,2.943-0.595c0.916-0.397,1.726-0.943,2.407-1.625
	c0.681-0.679,1.226-1.488,1.623-2.404c0.396-0.916,0.596-1.907,0.596-2.944c0-1.039-0.2-2.036-0.597-2.965s-0.941-1.744-1.622-2.424
	s-1.491-1.227-2.407-1.623C61.583,18.011,60.592,17.811,59.555,17.811"/>
<path fill="#FFFFFF" d="M84.044,43.976c-1.406,0-2.763-0.269-4.031-0.791c-2.583-1.221-4.209-3.193-4.675-3.808
	c-0.078-0.103-0.054-0.248,0.051-0.321l2.042-1.435c0.103-0.073,0.241-0.05,0.315,0.053c0.321,0.438,1.239,1.581,2.643,2.425
	c1.078,0.624,2.317,0.914,3.654,0.914c1.039,0,2.029-0.201,2.945-0.597c0.916-0.397,1.726-0.941,2.406-1.623
	c0.68-0.682,1.218-1.49,1.615-2.405c0.396-0.917,0.587-1.908,0.587-2.945V33.24c0-0.2-0.236-0.302-0.383-0.165
	c-0.958,0.887-2.021,1.566-3.087,2.027c-1.307,0.563-2.679,0.849-4.086,0.849c-1.408,0-2.77-0.273-4.049-0.812
	c-1.281-0.538-2.422-1.303-3.394-2.276c-1-0.999-1.771-2.154-2.295-3.434c-0.525-1.278-0.791-2.629-0.791-4.011
	c0-1.408,0.266-2.771,0.791-4.051c0.524-1.28,1.297-2.436,2.295-3.434c0.973-0.973,2.115-1.738,3.395-2.276
	c1.28-0.537,2.644-0.811,4.051-0.811c0.691,0,1.419,0.078,2.16,0.231c0.74,0.153,1.465,0.375,2.156,0.655
	c0.694,0.283,1.35,0.654,1.954,1.103c0.382,0.285,0.734,0.587,1.052,0.916c0.13,0.134,0.356,0.068,0.389-0.117l0.306-2.546
	c0.02-0.109,0.114-0.189,0.224-0.189h2.093c0.126,0,0.228,0.103,0.228,0.229v18.313c0,1.405-0.281,2.768-0.806,4.05
	c-0.525,1.28-1.305,2.424-2.304,3.397c-0.972,0.995-2.118,1.769-3.399,2.295C86.817,43.707,85.451,43.976,84.044,43.976
	 M84.044,17.811c-1.038,0-2.029,0.2-2.944,0.596c-0.917,0.396-1.726,0.942-2.407,1.623c-0.68,0.681-1.227,1.496-1.622,2.424
	c-0.396,0.929-0.596,1.925-0.596,2.965c0,1.039,0.2,2.03,0.596,2.944c0.396,0.916,0.942,1.726,1.622,2.404
	c0.681,0.682,1.49,1.228,2.407,1.625c0.914,0.395,1.905,0.595,2.944,0.595s2.03-0.2,2.945-0.595
	c0.916-0.397,1.726-0.943,2.406-1.625c0.68-0.679,1.226-1.488,1.622-2.404c0.396-0.916,0.597-1.907,0.597-2.944
	c0-1.039-0.201-2.036-0.597-2.965c-0.396-0.929-0.941-1.744-1.622-2.424c-0.681-0.681-1.491-1.227-2.406-1.623
	C86.073,18.011,85.083,17.811,84.044,17.811"/>
<path fill="#FFFFFF" d="M101.073,35.731V15.129c0-0.126,0.104-0.229,0.229-0.229h2.55c0.127,0,0.229,0.103,0.229,0.229v20.602
	c0,0.125-0.102,0.229-0.229,0.229h-2.55C101.176,35.96,101.073,35.856,101.073,35.731 M102.525,11.734
	c-0.496,0-0.915-0.168-1.246-0.5c-0.333-0.332-0.501-0.751-0.501-1.248c0-0.494,0.167-0.918,0.498-1.263
	c0.333-0.347,0.754-0.522,1.25-0.522c0.495,0,0.921,0.174,1.267,0.519c0.344,0.346,0.519,0.772,0.519,1.266
	c0,0.497-0.175,0.917-0.521,1.25C103.444,11.566,103.02,11.734,102.525,11.734"/>
<path fill="#FFFFFF" d="M111.3,35.734V8.434c0-0.124,0.102-0.225,0.225-0.225h2.56c0.124,0,0.224,0.101,0.224,0.225v27.301
	c0,0.124-0.1,0.226-0.224,0.226h-2.56C111.402,35.96,111.3,35.858,111.3,35.734"/>
<path fill="#FFFFFF" d="M129.829,35.951c-1.41,0-2.772-0.272-4.052-0.812c-1.282-0.538-2.423-1.303-3.395-2.277
	c-1-0.997-1.771-2.146-2.296-3.413c-0.524-1.267-0.791-2.622-0.791-4.03s0.267-2.771,0.791-4.051
	c0.525-1.28,1.297-2.422,2.297-3.397c0.971-0.997,2.113-1.775,3.394-2.313c1.279-0.537,2.642-0.81,4.052-0.81
	c1.408,0,2.764,0.272,4.032,0.81c1.268,0.538,2.414,1.316,3.414,2.314c0.995,0.972,1.752,2.128,2.279,3.435
	c0.524,1.306,0.774,2.681,0.774,4.088v0.16h-17.834c-0.13,0-0.233,0.11-0.227,0.241c0.048,0.838,0.251,1.745,0.604,2.525
	c0.409,0.905,0.963,1.7,1.642,2.367c0.683,0.669,1.486,1.209,2.391,1.604c0.902,0.395,1.884,0.594,2.925,0.594
	c1.41,0,2.714-0.357,3.876-1.062c1.163-0.705,2.078-1.687,2.722-2.85l0.044-0.112h3.275l-0.08,0.24
	c-0.537,1.356-1.342,2.594-2.391,3.643c-1,0.973-2.146,1.747-3.414,2.284C132.593,35.669,131.237,35.951,129.829,35.951
	 M136.528,22.647c0.166,0,0.275-0.172,0.206-0.323c-0.561-1.22-1.408-2.29-2.527-3.115c-1.274-0.94-2.747-1.408-4.378-1.408
	c-0.816,0-1.607,0.13-2.35,0.377c-0.744,0.248-1.434,0.602-2.051,1.046c-0.619,0.446-1.171,0.97-1.64,1.588
	c-0.355,0.464-0.654,1-0.897,1.512c-0.07,0.15,0.04,0.323,0.206,0.323H136.528z"/>
<path fill="#FFFFFF" d="M153.634,35.951c-1.408,0-2.771-0.273-4.052-0.812s-2.422-1.303-3.395-2.276
	c-1-0.999-1.771-2.154-2.295-3.434c-0.524-1.278-0.792-2.641-0.792-4.05c0-1.382,0.268-2.732,0.792-4.012
	c0.524-1.28,1.297-2.436,2.295-3.434c0.973-0.973,2.116-1.738,3.395-2.276c1.28-0.537,2.644-0.811,4.052-0.811
	c1.407,0,2.771,0.273,4.051,0.811c0.962,0.404,2.484,1.537,3.18,2.09c0.149,0.119,0.37,0.013,0.37-0.178V8.434
	c0-0.125,0.1-0.226,0.225-0.226h2.406c0.125,0,0.227,0.101,0.227,0.226V25.38c0,1.408-0.229,2.77-0.755,4.05
	c-0.523,1.279-1.278,2.437-2.275,3.434c-0.974,0.974-2.106,1.738-3.385,2.276C156.395,35.678,155.041,35.951,153.634,35.951
	 M153.634,17.811c-1.038,0-2.029,0.2-2.945,0.596c-0.916,0.396-1.726,0.942-2.405,1.623c-0.681,0.681-1.227,1.49-1.623,2.406
	c-0.396,0.914-0.595,1.905-0.595,2.944c0,1.04,0.199,2.037,0.595,2.965c0.396,0.929,0.942,1.744,1.623,2.423
	c0.68,0.682,1.489,1.228,2.405,1.625c0.914,0.395,1.905,0.595,2.945,0.595c1.038,0,2.03-0.2,2.943-0.595
	c0.916-0.397,1.728-0.943,2.408-1.625c0.679-0.679,1.224-1.494,1.622-2.423c0.395-0.93,0.596-1.926,0.596-2.965
	c0-1.037-0.201-2.029-0.596-2.944c-0.398-0.916-0.941-1.725-1.622-2.406s-1.492-1.227-2.408-1.623
	C155.662,18.011,154.672,17.811,153.634,17.811"/>
<path fill="#FFFFFF" d="M168.452,35.731V15.128c0-0.125,0.102-0.228,0.227-0.228h2.049c0.1,0,0.187,0.063,0.217,0.157l0.458,1.417
	c0.048,0.147,0.229,0.205,0.352,0.111c0.688-0.527,1.44-0.943,2.247-1.251c0.977-0.373,2.019-0.557,3.096-0.557
	c0.358,0,0.702,0.021,1.025,0.06c0.312,0.038,0.669,0.084,1.003,0.135l0.156,0.02V18.1l-0.224-0.06
	c-0.642-0.197-1.307-0.297-1.947-0.297c-0.786,0-1.541,0.15-2.229,0.444c-0.689,0.295-1.305,0.707-1.82,1.222
	c-0.515,0.517-0.894,1.129-1.188,1.817c-0.296,0.688-0.413,1.436-0.413,2.223v12.281c0,0.125-0.102,0.227-0.227,0.227h-2.555
	C168.554,35.958,168.452,35.856,168.452,35.731"/>
<path fill="#FFFFFF" d="M191.813,35.951c-1.409,0-2.765-0.273-4.031-0.812c-1.271-0.538-2.415-1.303-3.413-2.274
	c-0.973-1-1.74-2.156-2.277-3.436c-0.537-1.278-0.812-2.629-0.812-4.011c0-1.408,0.275-2.771,0.812-4.051
	c0.537-1.28,1.305-2.436,2.275-3.432c1-0.975,2.148-1.739,3.415-2.277c1.267-0.537,2.622-0.811,4.031-0.811
	c1.408,0,2.77,0.273,4.052,0.811c1.278,0.538,2.434,1.303,3.431,2.275c0.976,1,1.74,2.154,2.277,3.434
	c0.538,1.28,0.811,2.644,0.811,4.052c0,1.382-0.272,2.732-0.811,4.012c-0.537,1.278-1.302,2.434-2.275,3.432
	c-0.997,0.975-2.152,1.739-3.433,2.277S193.222,35.951,191.813,35.951 M191.813,17.811c-1.036,0-2.028,0.2-2.944,0.596
	c-0.916,0.396-1.729,0.942-2.407,1.623c-0.681,0.681-1.227,1.496-1.62,2.424c-0.396,0.929-0.598,1.925-0.598,2.965
	c0,1.039,0.201,2.03,0.598,2.944c0.394,0.916,0.939,1.726,1.62,2.404c0.683,0.682,1.491,1.228,2.407,1.625
	c0.912,0.395,1.906,0.595,2.944,0.595c1.04,0,2.029-0.2,2.942-0.595c0.919-0.397,1.736-0.943,2.428-1.625
	c0.694-0.681,1.246-1.49,1.642-2.404c0.396-0.916,0.596-1.907,0.596-2.944c0-1.039-0.2-2.036-0.596-2.965
	c-0.396-0.927-0.947-1.743-1.642-2.424c-0.691-0.681-1.509-1.227-2.428-1.624C193.843,18.011,192.852,17.811,191.813,17.811"/>
<path fill="#FFFFFF" d="M206.877,43.253c-0.123,0-0.223-0.101-0.223-0.224v-17.61c0-1.408,0.263-2.771,0.784-4.051
	c0.526-1.28,1.297-2.436,2.296-3.434c0.974-0.973,2.115-1.738,3.393-2.276c1.28-0.537,2.644-0.811,4.052-0.811
	s2.77,0.273,4.049,0.811c1.28,0.538,2.424,1.303,3.396,2.276c0.998,0.998,1.769,2.153,2.295,3.434
	c0.525,1.282,0.792,2.644,0.792,4.051c0,1.382-0.267,2.73-0.792,4.011c-0.524,1.279-1.297,2.437-2.295,3.434
	c-0.973,0.974-2.116,1.738-3.396,2.276c-1.279,0.538-2.643,0.812-4.049,0.812c-1.41,0-2.771-0.273-4.052-0.812
	c-1.476-0.677-2.56-1.539-3.092-2.023c-0.144-0.132-0.375-0.03-0.375,0.164v9.749c0,0.123-0.097,0.224-0.221,0.224H206.877z
	 M217.179,17.811c-1.039,0-2.029,0.2-2.946,0.596c-0.916,0.396-1.726,0.942-2.405,1.623c-0.681,0.681-1.227,1.496-1.621,2.424
	c-0.397,0.929-0.598,1.925-0.598,2.965c0,1.039,0.2,2.03,0.598,2.944c0.395,0.916,0.94,1.726,1.621,2.404
	c0.682,0.682,1.489,1.228,2.405,1.625c0.913,0.395,1.905,0.595,2.946,0.595c1.039,0,2.028-0.2,2.943-0.595
	c0.917-0.397,1.726-0.943,2.406-1.625c0.679-0.679,1.227-1.488,1.623-2.404c0.394-0.916,0.598-1.907,0.598-2.944
	c0-1.039-0.204-2.036-0.598-2.965c-0.396-0.929-0.944-1.744-1.623-2.424c-0.681-0.681-1.489-1.227-2.406-1.623
	C219.207,18.011,218.216,17.811,217.179,17.811"/>
<path fill="#EE4723" d="M35.118,36.134c-0.093,0-0.178,0.046-0.231,0.119c-0.665,0.942-1.418,1.847-2.258,2.672
	c-1.182,1.161-2.488,2.177-3.902,3.007c-0.25,0.147-0.146,0.529,0.144,0.529h9.931c0.157,0,0.284-0.128,0.284-0.284V36.42
	c0-0.158-0.127-0.286-0.284-0.286H35.118z"/>
<path fill="#EE4723" d="M36.301,25.291c0-4.011-2.26-9.054-7.452-15.418c-3.587-4.397-7.127-7.769-7.275-7.911l-1.983-1.883
	c-0.109-0.104-0.281-0.104-0.391,0l-1.983,1.883c-0.149,0.142-3.688,3.514-7.276,7.911C4.75,16.237,2.25,21.809,2.25,25.82
	c0,2.703,0.632,5.679,1.754,8.045c0.047,0.097,0.147,0.159,0.258,0.159h6.86c0.244,0,0.374-0.285,0.214-0.467
	c-1.727-1.988-2.76-4.951-2.76-7.737c0-1.111,0.597-4.707,6.238-11.634c1.565-1.922,3.141-3.776,4.38-5.092
	c0.111-0.12,0.3-0.12,0.412-0.002c1.24,1.297,2.818,2.974,4.384,4.896c5.641,6.928,6.252,10.227,6.252,11.337
	c0,5.95-5.422,10.787-11.288,10.826c-0.024,0-18.671-0.016-18.671-0.016C0.126,36.135,0,36.263,0,36.42v5.757
	c0,0.158,0.126,0.284,0.283,0.284c4.791,0,18.648,0,18.673,0C28.335,42.414,36.301,34.729,36.301,25.291"/>
</svg>
