<svg width="178" height="32" viewBox="0 0 134 24" fill="none" xmlns="http://www.w3.org/2000/svg">
<g clip-path="url(#clip0)">
<path d="M33.5528 19.6096C32.7709 19.6096 32.0149 19.4607 31.304 19.1667C30.5936 18.8733 29.9598 18.456 29.4198 17.9253C28.8653 17.3804 28.4369 16.7504 28.146 16.0522C27.8547 15.3551 27.707 14.6182 27.707 13.8644C27.707 13.0964 27.8541 12.3529 28.146 11.6547C28.4369 10.9565 28.8653 10.326 29.4198 9.78163C29.9603 9.2509 30.5936 8.83363 31.304 8.54017C32.0144 8.24726 32.7714 8.09781 33.5528 8.09781C34.3337 8.09781 35.0902 8.24672 35.8006 8.54017C36.5104 8.83363 37.1443 9.2509 37.6848 9.78163C38.2387 10.326 38.6683 10.956 38.9597 11.6547C39.251 12.354 39.4003 13.0969 39.4003 13.8644V19.4907C39.4003 19.5584 39.3443 19.6129 39.2749 19.6129H37.8547C37.7858 19.6129 37.7298 19.5584 37.7298 19.4907V18.0758C37.7298 17.9629 37.5883 17.91 37.5122 17.9945C37.3324 18.1936 37.1487 18.3714 36.9472 18.5225C36.6053 18.7822 36.2468 18.9944 35.8689 19.1564C35.4915 19.3156 35.1019 19.4334 34.7028 19.5033C34.3065 19.5736 33.9208 19.6096 33.5528 19.6096ZM33.5528 9.71508C32.9762 9.71508 32.4268 9.82417 31.9184 10.0402C31.4094 10.2562 30.9604 10.554 30.583 10.9254C30.2051 11.2969 29.9021 11.7414 29.6828 12.2476C29.4636 12.7538 29.3521 13.2976 29.3521 13.8649C29.3521 14.4316 29.4636 14.9722 29.6828 15.4707C29.9026 15.9704 30.2051 16.4122 30.583 16.782C30.961 17.154 31.41 17.4518 31.9184 17.6684C32.4256 17.8838 32.9756 17.9929 33.5528 17.9929C34.1295 17.9929 34.6795 17.8838 35.1862 17.6684C35.6946 17.4518 36.1441 17.154 36.5221 16.782C36.9001 16.4116 37.2025 15.9704 37.4229 15.4707C37.6426 14.9711 37.7536 14.4305 37.7536 13.8649C37.7536 13.2982 37.6426 12.7544 37.4223 12.2476C37.202 11.7409 36.9001 11.2964 36.5221 10.9254C36.1441 10.5545 35.6946 10.2562 35.1862 10.0402C34.6784 9.82417 34.1284 9.71508 33.5528 9.71508Z" fill="#032633"></path>
<path d="M47.1446 23.9869C46.3643 23.9869 45.6112 23.8402 44.9074 23.5554C43.4739 22.8894 42.5714 21.8138 42.3128 21.4784C42.2695 21.4222 42.2828 21.3431 42.3411 21.3033L43.4744 20.5205C43.5316 20.4807 43.6082 20.4933 43.6493 20.5494C43.8274 20.7884 44.3369 21.4118 45.1161 21.8722C45.7144 22.2125 46.402 22.3707 47.1441 22.3707C47.7207 22.3707 48.2702 22.2611 48.7786 22.0451C49.2869 21.8285 49.7365 21.5318 50.1139 21.1598C50.4913 20.7878 50.7899 20.3471 51.0102 19.848C51.23 19.3478 51.336 18.8073 51.336 18.2416V18.1309C51.336 18.0218 51.205 17.9662 51.1234 18.0409C50.5917 18.5247 50.0018 18.8951 49.4101 19.1465C48.6848 19.4536 47.9233 19.6096 47.1424 19.6096C46.361 19.6096 45.6051 19.4607 44.8952 19.1667C44.1843 18.8733 43.551 18.456 43.0116 17.9253C42.4566 17.3804 42.0287 16.7504 41.7378 16.0522C41.4465 15.3551 41.2988 14.6182 41.2988 13.8644C41.2988 13.0964 41.4465 12.3529 41.7378 11.6547C42.0287 10.9565 42.4577 10.326 43.0116 9.78163C43.5516 9.2509 44.1854 8.83363 44.8958 8.54017C45.6062 8.24726 46.3632 8.09781 47.1441 8.09781C47.5276 8.09781 47.9316 8.14035 48.3429 8.22381C48.7536 8.30726 49.156 8.42835 49.5395 8.58108C49.9246 8.73545 50.2887 8.93781 50.6239 9.18272C50.8359 9.33817 51.0313 9.5029 51.2078 9.68235C51.2799 9.75545 51.4054 9.71945 51.4237 9.61854L51.5935 8.22981C51.6046 8.17035 51.6568 8.12672 51.7178 8.12672H52.8795C52.9494 8.12672 53.006 8.1829 53.006 8.25163V18.2405C53.006 19.0069 52.85 19.7504 52.5587 20.4496C52.2673 21.1478 51.8344 21.7718 51.2799 22.3025C50.7405 22.8453 50.1045 23.2674 49.3935 23.5544C48.6837 23.8402 47.9255 23.9869 47.1446 23.9869ZM47.1446 9.71508C46.5685 9.71508 46.0185 9.82417 45.5107 10.0402C45.0018 10.2562 44.5528 10.554 44.1748 10.9254C43.7974 11.2969 43.4939 11.7414 43.2746 12.2476C43.0548 12.7544 42.9438 13.2976 42.9438 13.8649C42.9438 14.4316 43.0548 14.9722 43.2746 15.4707C43.4944 15.9704 43.7974 16.4122 44.1748 16.782C44.5528 17.154 45.0018 17.4518 45.5107 17.6684C46.018 17.8838 46.568 17.9929 47.1446 17.9929C47.7213 17.9929 48.2713 17.8838 48.7791 17.6684C49.2875 17.4518 49.737 17.154 50.1144 16.782C50.4918 16.4116 50.7949 15.9704 51.0147 15.4707C51.2344 14.9711 51.346 14.4305 51.346 13.8649C51.346 13.2982 51.2344 12.7544 51.0147 12.2476C50.7949 11.7409 50.4924 11.2964 50.1144 10.9254C49.7365 10.554 49.2869 10.2562 48.7791 10.0402C48.2707 9.82417 47.7213 9.71508 47.1446 9.71508Z" fill="#032633"></path>
<path d="M56.5954 19.4896V8.25216C56.5954 8.18343 56.6531 8.12725 56.7225 8.12725H58.1377C58.2082 8.12725 58.2648 8.18343 58.2648 8.25216V19.4896C58.2648 19.5578 58.2082 19.6145 58.1377 19.6145H56.7225C56.6525 19.6145 56.5954 19.5578 56.5954 19.4896ZM57.4012 6.40034C57.126 6.40034 56.8934 6.30871 56.7097 6.12761C56.5249 5.94652 56.4316 5.71798 56.4316 5.44689C56.4316 5.17743 56.5243 4.94616 56.708 4.75798C56.8928 4.56871 57.1265 4.47325 57.4018 4.47325C57.6765 4.47325 57.9129 4.56816 58.105 4.75634C58.2959 4.94507 58.393 5.17743 58.393 5.44689C58.393 5.71798 58.2959 5.94707 58.1039 6.12871C57.9113 6.30871 57.676 6.40034 57.4012 6.40034Z" fill="#032633"></path>
<path d="M62.2715 19.4913V4.60034C62.2715 4.53271 62.3281 4.47762 62.3964 4.47762H63.8172C63.886 4.47762 63.9415 4.53271 63.9415 4.60034V19.4918C63.9415 19.5594 63.886 19.6151 63.8172 19.6151H62.3964C62.3281 19.6145 62.2715 19.5589 62.2715 19.4913Z" fill="#032633"></path>
<path d="M72.5549 19.6096C71.7723 19.6096 71.0164 19.4612 70.306 19.1667C69.5945 18.8732 68.9612 18.456 68.4218 17.9247C67.8668 17.3809 67.4389 16.7541 67.1475 16.0631C66.8567 15.372 66.7085 14.6329 66.7085 13.8649C66.7085 13.0969 66.8567 12.3534 67.1475 11.6552C67.4389 10.9571 67.8673 10.3341 68.4223 9.80233C68.9612 9.25851 69.5951 8.83415 70.306 8.5407C71.0159 8.24779 71.7723 8.09888 72.5549 8.09888C73.3363 8.09888 74.0889 8.24724 74.7926 8.5407C75.4964 8.83415 76.1324 9.25851 76.6874 9.80288C77.2396 10.3331 77.6598 10.9636 77.9522 11.6765C78.2431 12.3889 78.3818 13.1389 78.3818 13.9063V13.9936H68.4839C68.4118 13.9936 68.3546 14.0536 68.358 14.1251C68.3846 14.5821 68.4973 15.0769 68.6932 15.5023C68.9202 15.996 69.2276 16.4296 69.6045 16.7934C69.9836 17.1583 70.4292 17.4529 70.9315 17.6683C71.4321 17.8838 71.9771 17.9923 72.5549 17.9923C73.3374 17.9923 74.0611 17.7976 74.7061 17.4131C75.3515 17.0285 75.8593 16.4929 76.2168 15.8585L76.2412 15.7974H78.0588L78.0144 15.9283C77.7164 16.668 77.2696 17.3432 76.6874 17.9154C76.1324 18.4461 75.4964 18.8683 74.7926 19.1612C74.0889 19.4558 73.3363 19.6096 72.5549 19.6096ZM76.2728 12.3529C76.3649 12.3529 76.4254 12.2591 76.3871 12.1767C76.0758 11.5112 75.6057 10.9276 74.9847 10.4776C74.2776 9.96488 73.4601 9.7096 72.5549 9.7096C72.102 9.7096 71.663 9.78051 71.2506 9.91524C70.8377 10.0505 70.4547 10.2436 70.1123 10.4858C69.7688 10.7291 69.4624 11.0149 69.2021 11.352C69.0051 11.6051 68.8391 11.8974 68.7043 12.1767C68.6654 12.2585 68.7265 12.3529 68.8186 12.3529H76.2728Z" fill="#032633"></path>
<path d="M85.7668 19.6097C84.9853 19.6097 84.2289 19.4608 83.5179 19.1667C82.807 18.8728 82.1737 18.456 81.6337 17.9253C81.0787 17.3804 80.6508 16.7504 80.36 16.0522C80.0691 15.3551 79.9204 14.6117 79.9204 13.8431C79.9204 13.0893 80.0691 12.3529 80.36 11.6547C80.6508 10.9566 81.0798 10.326 81.6337 9.78166C82.1737 9.25093 82.8081 8.83366 83.5179 8.5402C84.2283 8.24729 84.9853 8.09784 85.7668 8.09784C86.5477 8.09784 87.3047 8.24675 88.0151 8.5402C88.549 8.76057 89.3937 9.37857 89.78 9.6802C89.8627 9.74511 89.9853 9.68729 89.9853 9.58311V4.60038C89.9853 4.5322 90.0408 4.47711 90.1102 4.47711H91.4455C91.5149 4.47711 91.5715 4.5322 91.5715 4.60038V13.8437C91.5715 14.6117 91.4444 15.3546 91.1525 16.0527C90.8622 16.7504 90.4432 17.382 89.8899 17.9258C89.3493 18.4571 88.721 18.8738 88.0112 19.1673C87.2991 19.4607 86.5477 19.6097 85.7668 19.6097ZM85.7668 9.71511C85.1907 9.71511 84.6407 9.8242 84.1323 10.0402C83.6239 10.2562 83.1744 10.554 82.7975 10.9255C82.4196 11.2969 82.1165 11.7382 81.8968 12.2378C81.677 12.7364 81.5665 13.2769 81.5665 13.8437C81.5665 14.4109 81.677 14.9547 81.8968 15.4609C82.1165 15.9677 82.4196 16.4122 82.7975 16.7826C83.1749 17.1546 83.6239 17.4524 84.1323 17.6689C84.6396 17.8844 85.1896 17.9935 85.7668 17.9935C86.3429 17.9935 86.8934 17.8844 87.4001 17.6689C87.9085 17.4524 88.3592 17.1546 88.7366 16.7826C89.1134 16.4122 89.4159 15.9677 89.6368 15.4609C89.856 14.9537 89.9676 14.4104 89.9676 13.8437C89.9676 13.278 89.856 12.7369 89.6368 12.2378C89.4159 11.7382 89.1145 11.2969 88.7366 10.9255C88.3586 10.554 87.9085 10.2562 87.4001 10.0402C86.8923 9.8242 86.3429 9.71511 85.7668 9.71511Z" fill="#032633"></path>
<path d="M93.9907 19.4896V8.25164C93.9907 8.18345 94.0473 8.12727 94.1167 8.12727H95.2539C95.3094 8.12727 95.3577 8.16164 95.3743 8.21291L95.6285 8.98582C95.6552 9.066 95.7556 9.09763 95.8239 9.04636C96.2057 8.75891 96.6231 8.532 97.071 8.364C97.6132 8.16054 98.1915 8.06018 98.7893 8.06018C98.9879 8.06018 99.1789 8.07163 99.3581 8.09291C99.5313 8.11363 99.7294 8.13873 99.9148 8.16654L100.001 8.17745V9.87273L99.8771 9.84C99.5207 9.73255 99.1517 9.678 98.7965 9.678C98.3602 9.678 97.9412 9.75982 97.5594 9.92018C97.177 10.0811 96.8351 10.3058 96.5493 10.5867C96.2634 10.8687 96.0531 11.2025 95.8899 11.5778C95.7257 11.9531 95.6607 12.3611 95.6607 12.7904V19.4891C95.6607 19.5573 95.6041 19.6129 95.5347 19.6129H94.1167C94.0473 19.6135 93.9907 19.5578 93.9907 19.4896Z" fill="#032633"></path>
<path d="M106.956 19.6096C106.174 19.6096 105.422 19.4607 104.719 19.1667C104.014 18.8733 103.379 18.456 102.825 17.9264C102.285 17.3809 101.859 16.7504 101.561 16.0522C101.263 15.3551 101.11 14.6182 101.11 13.8644C101.11 13.0964 101.263 12.3529 101.561 11.6547C101.859 10.9565 102.285 10.326 102.824 9.78272C103.379 9.2509 104.016 8.83418 104.719 8.54072C105.422 8.24781 106.174 8.09836 106.956 8.09836C107.738 8.09836 108.494 8.24727 109.205 8.54072C109.914 8.83418 110.556 9.25145 111.109 9.78163C111.651 10.3271 112.075 10.9565 112.373 11.6547C112.672 12.3529 112.823 13.0969 112.823 13.8649C112.823 14.6187 112.672 15.3551 112.373 16.0533C112.075 16.7504 111.65 17.3809 111.11 17.9253C110.557 18.4571 109.916 18.8738 109.205 19.1673C108.494 19.4607 107.738 19.6096 106.956 19.6096ZM106.956 9.71509C106.381 9.71509 105.831 9.82418 105.322 10.0402C104.814 10.2562 104.363 10.554 103.986 10.9255C103.608 11.2969 103.305 11.7415 103.087 12.2476C102.867 12.7544 102.755 13.2976 102.755 13.8649C102.755 14.4316 102.867 14.9722 103.087 15.4707C103.306 15.9704 103.608 16.4122 103.986 16.782C104.365 17.154 104.814 17.4518 105.322 17.6684C105.828 17.8838 106.38 17.9929 106.956 17.9929C107.533 17.9929 108.082 17.8838 108.589 17.6684C109.099 17.4518 109.552 17.154 109.937 16.782C110.322 16.4105 110.628 15.9693 110.848 15.4707C111.068 14.9711 111.179 14.4305 111.179 13.8649C111.179 13.2982 111.068 12.7544 110.848 12.2476C110.628 11.742 110.322 11.2969 109.937 10.9255C109.553 10.554 109.099 10.2562 108.589 10.0396C108.083 9.82418 107.533 9.71509 106.956 9.71509Z" fill="#032633"></path>
<path d="M115.317 23.5925C115.248 23.5925 115.193 23.5375 115.193 23.4704V13.8649C115.193 13.0969 115.339 12.3535 115.628 11.6553C115.92 10.9571 116.348 10.3265 116.902 9.78218C117.443 9.25145 118.076 8.83418 118.785 8.54072C119.496 8.24781 120.253 8.09836 121.034 8.09836C121.816 8.09836 122.572 8.24727 123.281 8.54072C123.992 8.83418 124.627 9.25145 125.166 9.78218C125.72 10.3265 126.148 10.9565 126.44 11.6553C126.731 12.3545 126.88 13.0975 126.88 13.8649C126.88 14.6187 126.731 15.354 126.44 16.0527C126.149 16.7504 125.72 17.382 125.166 17.9258C124.626 18.4571 123.992 18.8738 123.281 19.1673C122.572 19.4607 121.815 19.6102 121.034 19.6102C120.252 19.6102 119.496 19.4613 118.785 19.1673C117.966 18.798 117.365 18.3278 117.069 18.0638C116.989 17.9918 116.861 18.0475 116.861 18.1533V23.4709C116.861 23.538 116.807 23.5931 116.739 23.5931H115.317V23.5925ZM121.034 9.71509C120.458 9.71509 119.908 9.82418 119.399 10.0402C118.891 10.2562 118.441 10.554 118.064 10.9255C117.686 11.2969 117.383 11.7415 117.165 12.2476C116.944 12.7544 116.833 13.2976 116.833 13.8649C116.833 14.4316 116.944 14.9722 117.165 15.4707C117.384 15.9704 117.686 16.4122 118.064 16.782C118.443 17.154 118.891 17.4518 119.399 17.6684C119.906 17.8838 120.456 17.9929 121.034 17.9929C121.611 17.9929 122.16 17.8838 122.668 17.6684C123.177 17.4518 123.626 17.154 124.003 16.782C124.38 16.4116 124.684 15.9704 124.904 15.4707C125.122 14.9711 125.236 14.4305 125.236 13.8649C125.236 13.2982 125.122 12.7544 124.904 12.2476C124.684 11.7409 124.38 11.2964 124.003 10.9255C123.625 10.554 123.177 10.2562 122.668 10.0402C122.16 9.82418 121.61 9.71509 121.034 9.71509Z" fill="#032633"></path>
<path d="M19.9905 19.7095C19.9388 19.7095 19.8917 19.7345 19.8622 19.7744C19.4932 20.2882 19.0753 20.7818 18.6091 21.2318C17.9531 21.8651 17.2282 22.4193 16.4435 22.872C16.3047 22.9522 16.3624 23.1606 16.5234 23.1606H22.0351C22.1222 23.1606 22.1927 23.0907 22.1927 23.0056V19.8655C22.1927 19.7793 22.1222 19.7095 22.0351 19.7095H19.9905Z" fill="#EE4723"></path>
<path d="M20.6471 13.7979C20.6471 11.6101 19.3928 8.85939 16.5112 5.38812C14.5204 2.98975 12.5557 1.15048 12.4736 1.07302L11.373 0.0459329C11.3125 -0.0107944 11.2171 -0.0107944 11.156 0.0459329L10.0554 1.07302C9.97274 1.15048 8.00859 2.98975 6.01725 5.38812C3.13625 8.85939 1.74875 11.8987 1.74875 14.0865C1.74875 15.5608 2.09951 17.1841 2.72222 18.4747C2.74831 18.5276 2.80381 18.5614 2.86541 18.5614H6.67271C6.80813 18.5614 6.88028 18.4059 6.79148 18.3067C5.833 17.2223 5.25968 15.6061 5.25968 14.0865C5.25968 13.4805 5.59102 11.519 8.72177 7.74066C9.59035 6.6923 10.465 5.68103 11.1527 4.96321C11.2143 4.89775 11.3192 4.89775 11.3813 4.96212C12.0695 5.66957 12.9453 6.5843 13.8145 7.63266C16.9452 11.4116 17.2843 13.211 17.2843 13.8165C17.2843 17.0619 14.2751 19.7003 11.0195 19.7216C11.0062 19.7216 0.657065 19.7128 0.657065 19.7128C0.56993 19.7128 0.5 19.7827 0.5 19.8683V23.0085C0.5 23.0947 0.56993 23.1634 0.657065 23.1634C3.31607 23.1634 11.0067 23.1634 11.0206 23.1634C16.2259 23.1378 20.6471 18.9459 20.6471 13.7979Z" fill="#EE4723"></path>
</g>
<defs>
<clipPath id="clip0">
<rect width="133.2" height="24" fill="white" transform="translate(0.5)"></rect>
</clipPath>
</defs>
</svg>